<?xml version="1.0" standalone="no"?>
<!DOCTYPE svg PUBLIC "-//W3C//DTD SVG 20010904//EN"
 "http://www.w3.org/TR/2001/REC-SVG-20010904/DTD/svg10.dtd">
<svg version="1.0" xmlns="http://www.w3.org/2000/svg"
 width="1023.000000pt" height="1023.000000pt" viewBox="0 0 1023.000000 1023.000000"
 preserveAspectRatio="xMidYMid meet">
<metadata>
Created by potrace 1.14, written by Peter Selinger 2001-2017
</metadata>
<g transform="translate(0.000000,1023.000000) scale(0.100000,-0.100000)"
fill="#000000" stroke="none">
<path d="M6959 10210 c-58 -10 -116 -21 -130 -26 -13 -4 -29 -9 -36 -10 -34
-6 -168 -50 -243 -81 -426 -170 -791 -455 -1058 -825 -34 -48 -62 -89 -62 -92
0 -3 -13 -24 -29 -48 -143 -213 -275 -573 -311 -844 -20 -161 -15 -373 10
-398 12 -12 219 -14 300 -4 103 14 225 48 390 109 19 8 89 41 155 74 465 235
808 609 1044 1137 27 60 95 265 115 343 50 204 73 502 49 635 -8 44 -9 45 -48
46 -22 0 -88 -7 -146 -16z"/>
<path d="M6837 7754 c-1 -2 -25 -5 -52 -8 -108 -10 -228 -32 -350 -62 -23 -6
-23 -6 -85 -23 -86 -24 -286 -94 -450 -158 -448 -175 -552 -206 -705 -214
-124 -6 -288 37 -585 154 -113 45 -207 82 -210 82 -3 1 -22 8 -42 17 -124 55
-445 149 -558 164 -25 3 -54 9 -65 11 -37 10 -399 11 -460 2 -33 -5 -78 -11
-100 -14 -139 -17 -362 -79 -565 -156 -75 -28 -302 -150 -397 -212 -462 -302
-814 -749 -1028 -1302 -57 -147 -131 -398 -149 -500 -3 -16 -7 -41 -10 -55
-11 -51 -16 -76 -22 -114 -3 -21 -7 -46 -9 -55 -2 -9 -6 -44 -10 -76 -4 -33
-9 -71 -11 -85 -25 -158 -25 -835 1 -968 1 -9 6 -46 9 -82 4 -36 8 -75 10 -86
2 -12 7 -45 11 -75 3 -30 8 -65 11 -79 12 -64 14 -77 20 -115 3 -22 19 -103
35 -180 17 -77 32 -151 35 -165 47 -225 226 -788 314 -985 5 -11 35 -78 66
-150 62 -143 203 -430 253 -513 17 -29 31 -55 31 -57 0 -16 193 -316 295 -458
123 -171 379 -511 405 -537 3 -3 39 -43 80 -90 224 -253 428 -420 623 -509
166 -76 292 -101 482 -95 114 3 172 10 300 38 40 9 232 73 270 90 17 8 86 37
155 65 69 29 134 56 145 61 87 41 337 112 470 134 174 29 536 27 655 -4 19 -5
49 -11 65 -13 108 -17 263 -70 498 -172 343 -147 512 -188 767 -189 80 0 207
11 219 18 4 3 23 8 42 11 59 11 177 54 262 96 298 149 567 419 942 944 127
178 275 401 275 414 0 6 3 11 8 11 4 0 12 10 18 23 6 12 37 67 69 122 52 90
235 447 235 459 0 2 14 34 30 70 71 152 204 521 194 537 -3 5 -35 22 -72 39
-144 67 -357 206 -497 323 -74 62 -245 234 -303 303 -162 196 -298 440 -378
679 -24 72 -46 145 -49 164 -3 19 -7 37 -9 40 -2 3 -7 24 -10 46 -4 22 -9 47
-11 56 -3 8 -12 62 -19 120 -14 103 -16 522 -3 579 3 14 8 45 11 70 15 124 79
374 111 432 8 14 15 33 15 40 0 8 33 82 74 164 79 158 169 300 269 423 140
173 393 403 550 501 31 19 56 39 57 44 0 17 -164 217 -258 313 -227 231 -501
410 -804 527 -224 86 -406 129 -693 162 -58 7 -412 13 -418 8z"/>
</g>
</svg>
